<svg xmlns="http://www.w3.org/2000/svg" xmlns:xlink="http://www.w3.org/1999/xlink" version="1.1" id="Layer_1" x="0px" y="0px" viewBox="0 0 1080 1080" style="enable-background:new 0 0 1080 1080;" xml:space="preserve">
<style xmlns="http://www.w3.org/2000/svg" type="text/css">
	.st0{fill:#F7F7F7;}
	.st1{fill:#F2F2F2;}
	.st2{fill:#c6c6c6;}
	.st3{fill:#F9A326;}
	.st4{fill:#FFCE88;}
	.st5{fill:#1371B7;}
	.st6{fill:#0B577C;}
	.st7{fill:#2A94F4;}
	.st8{fill:#1E88D8;}
	.st9{fill:#48B1FF;}
	.st10{fill:#FFD4B0;}
	.st11{fill:#FFC99C;}
	.st12{fill:#FFE3CA;}
	.st13{fill:#FFA42C;}
	.st14{fill:#0E538C;}
	.st15{fill:#FFFFFF;}
	.st16{fill:none;stroke:#2A94F4;stroke-miterlimit:10;}
	.st17{fill:#CCE9FF;}
</style>
<g xmlns="http://www.w3.org/2000/svg">
	<path class="st0" d="M311.7,309.7c-26,11.4-51.8,25.2-69.9,46.9c-18.2,21.8-27.3,53-16.4,79.2c14.6,34.9,60.7,55.3,60.9,93.1   c0.2,27.1-24.9,47.8-50.1,57.7s-53.2,13.4-76.2,27.8c-34.7,21.7-50.9,63.8-57.6,104.2c-6.9,41.9-4.1,89.6,25.6,120   c36.9,37.8,97.8,33.5,150,25.5c69.6-10.8,139-23.4,208.3-36C638.1,800.4,790.1,772.7,942,745c16.3-3,33.2-6.2,46.5-16.2   c26.3-19.8,28.5-60.6,13.2-89.7c-15.3-29.1-43.5-48.9-71.6-66s-57.7-33.3-78.8-58.6c-21-25.3-31.5-62.7-15.6-91.5   c13.5-24.4,42.4-37.4,55.1-62.3c16.6-32.7-2.5-74.5-32.7-95.4C828,244.5,448.8,249.8,311.7,309.7z"/>
</g>
<path xmlns="http://www.w3.org/2000/svg" class="st1" d="M1019.4,1017.3H51.2c-6.3,0-11.4-5.1-11.4-11.4v-56.8c0-6.3,5.1-11.4,11.4-11.4h968.2c6.3,0,11.4,5.1,11.4,11.4  v56.8C1030.8,1012.1,1025.7,1017.3,1019.4,1017.3z"/>
<g xmlns="http://www.w3.org/2000/svg">
	<path class="st2" d="M970.7,542.9v400.4c0,14.4-11.6,26-26,26H203.2c-14.3,0-26-11.6-26-26V542.9c0-2.7,0.4-5.4,1.2-7.9   c3.3-10.5,13.1-18.1,24.8-18.1h741.5c11.6,0,21.4,7.6,24.8,18.1C970.3,537.5,970.7,540.2,970.7,542.9z"/>
	<path class="st3" d="M178.5,951.9L574,696l395.5,255.9c-3.3,10.5-13.1,18.1-24.8,18.1H203.2C191.6,970.1,181.8,962.4,178.5,951.9z"/>
	<path class="st4" d="M969.5,535.1l-362.1,238c-20.3,13.3-46.5,13.3-66.8,0l-362.1-238c3.3-10.5,13.1-18.1,24.8-18.1h741.5   C956.3,517,966.2,524.6,969.5,535.1z"/>
</g>
<g xmlns="http://www.w3.org/2000/svg">
	<path class="st5" d="M129.5,942c0.6,14.6,20.8,45.2,17.4,51s-38.2,15-45.6,0c-7.3-15,6.7-40.3,6.7-51S129.5,942,129.5,942z"/>
	<path class="st5" d="M193.2,941.3c8.8,15.3,49.3,40.9,52.5,48.8s-75.3-0.3-92-20.4c6-18.1,10.7-32.5,10.7-32.5L193.2,941.3z"/>
	<path class="st6" d="M154,557.7c-10.4,7.5-37.9,70.6-28.8,222.9c-25.2,90.6-18.3,168.8-18.3,168.8h25.8c0,0,22.6-149.8,27.9-161.1   c5.3-11.3,58.8-171.9,38.9-230.3C179.6,499.6,154,557.7,154,557.7z"/>
	<path class="st6" d="M184.4,539.5c-10.4,7.5-15.9,82-6.8,234.4c-25.2,90.6-17.3,175.6-17.3,175.6h39.4c0,0,8-156.6,13.2-167.9   s58.8-165.1,38.9-223.5C232.1,499.6,184.4,539.5,184.4,539.5z"/>
	<path class="st7" d="M160.1,372.3c0,0-21.6,9.5-28.3,19.1c-6.7,9.6-116,126.5-2.1,200.8c7.7-7.1,10.3-12.9,10.3-12.9   s-78.7-67.8-14.7-117.7s62.1-82.7,62.1-82.7L160.1,372.3z"/>
	<path class="st8" d="M227.1,395.9c0,0,30,15.1,33.1,42.1c3,27,1.5,99.5-3,104.5c-4.6,5.1-13.9,12.1-17.6,3.5   C235.9,537.5,227.1,395.9,227.1,395.9z"/>
	<path class="st7" d="M181.3,367.2c0,0,47,25.3,50.1,33.7c3,8.4,10.6,48.9,16.7,59c6.1,10.1-10.6,40.5-10.6,40.5l22.1,87.8   c0,0-92,2.4-126.9-9.4c-2.2-18.8,14.7-45,16.5-71.6c1.8-28.2-11.6-56.3-18.7-59.8c9.1-16.9,43.2-9.4,29.6-75.1   C172.2,368.9,181.3,367.2,181.3,367.2z"/>
	<polygon class="st2" points="207.8,466.9 232.4,477.1 247.4,432 222.9,421.9  "/>
	<path class="st9" d="M248,461.6c10.6,27,27.3,91-4.6,91c-7.6,0-9.1-79.2-9.1-86C238.9,461.6,248,461.6,248,461.6z"/>
	<path class="st10" d="M248,461.6c0,0-9.1-20.2-15.2-18.5s-24.3,5.1-24.3,10.1s25.8,13.5,25.8,13.5h9.1L248,461.6z"/>
	<path class="st10" d="M138.8,608.5c-9.7-4.6-21.5-29.7,3.3-29.8c11.4,0,12.4,24.4,12.4,24.4L138.8,608.5z"/>
	<path class="st5" d="M220.4,295.7c4.7-15.7,0-38.5-17.8-39.9c-17.8-1.4-41.6,15.6-40.2,29.8s24.9,26.6,24.9,26.6L220.4,295.7z"/>
	<path class="st5" d="M259.5,318.2c0,26.9-16.6,44.5-39.8,44.5s-44-1.8-44-28.7s17.9-54.5,41.1-54.5S259.5,291.3,259.5,318.2z"/>
	<g>
		<path class="st11" d="M197.2,344.4c-4.6,8.4-16.7,27-16.7,27l17.1,50.5l10.2-34.5l1.5-26.1L197.2,344.4z"/>
		<path class="st12" d="M203.4,324.7c-9.1,16.7-7.6,45.3,6,54.5c13.6,9.2,34.2-4.6,43.3-21.3c9.1-16.7,5.5-37.7-8.1-46.9    S212.5,308,203.4,324.7z"/>
		<ellipse class="st12" cx="201.8" cy="331.8" rx="5.3" ry="10.1"/>
		<ellipse class="st13" cx="197.2" cy="341.1" rx="3.8" ry="4.2"/>
	</g>
	<path class="st5" d="M251.1,307.8c9.1,2.9,15,11.7,14.3,21.2c-0.7,9.1-3.6,16.7-5.5,16.7c-3,0-36-9-39-14s8-27,16-27   C240.4,304.7,246,306.1,251.1,307.8z"/>
	<path class="st5" d="M230.9,316.7c0,0-15.1,7-21.1,5c-4,2-5.2,8.5,2.1,15c-6.3,0.1-12-14-8-21s24-16,24-16l13,7l-1,4L230.9,316.7z"/>
</g>
<circle xmlns="http://www.w3.org/2000/svg" class="st14" cx="950.6" cy="517" r="80.3"/>
<g xmlns="http://www.w3.org/2000/svg">
	<path class="st15" d="M945.7,552.9v-58.3h-6.9c-2.6,0-4.6-0.8-5.9-2.4s-2-3.5-2-5.7c0-2.1,0.7-4,2.1-5.6c1.4-1.6,3.3-2.4,5.8-2.4   h16.5c2.4,0,4.3,0.8,5.7,2.3s2.1,3.5,2.1,5.9v66.1c0,2.9-0.8,5.1-2.4,6.7c-1.6,1.6-3.7,2.4-6.3,2.4c-2.5,0-4.6-0.8-6.3-2.4   S945.7,555.7,945.7,552.9z"/>
</g>
<path xmlns="http://www.w3.org/2000/svg" class="st16" d="M666.6,319.6h-21v-102c0-6.5-5.3-11.9-11.9-11.9h-74.1c-6.5,0-11.9,5.3-11.9,11.9v102h-21  c-9.9,0-15.5,11.3-9.6,19.1l69.9,92.9c4.8,6.4,14.3,6.4,19.1,0l69.9-92.9C682,330.9,676.4,319.6,666.6,319.6z"/>
<g xmlns="http://www.w3.org/2000/svg">
	<path class="st7" d="M611,368.6H537c-6.5,0-11.9-5.3-11.9-11.9v-135c0-6.5,5.3-11.9,11.9-11.9H611c6.5,0,11.9,5.3,11.9,11.9v135   C622.9,363.3,617.5,368.6,611,368.6z"/>
	<path class="st7" d="M583.5,435.8l69.9-92.9c5.9-7.9,0.3-19.1-9.6-19.1H504.1c-9.9,0-15.5,11.3-9.6,19.1l69.9,92.9   C569.2,442.1,578.8,442.1,583.5,435.8z"/>
</g>
<g xmlns="http://www.w3.org/2000/svg">
	<path class="st17" d="M1035.6,398.4c-11.8-20.1-30.8-35.8-52.8-43.6c-9.4-3.3-20.9-4.9-28.6,1.4c-7.7,6.3-5,22.5,5,22.3   c-30.9-21.4-68-33.5-105.5-34.4c-9.4-0.2-20,0.8-26,8.1s-1,21.7,8.3,20c-28.3-18.2-65.7-12.6-97.4-1.3c-9.2,3.3-18.3,7-27.4,10.6   c-10,4-7.1,18.8,3.7,18.8L1035.6,398.4z"/>
</g>
<g xmlns="http://www.w3.org/2000/svg">
	<path class="st17" d="M291.2,280.2c-6.9,2.5-13.9-6-12.4-13.2c1.5-7.2,8.2-12.1,14.9-15.1c15.2-6.7,33.3-6.6,48.4,0.2   c-3.5-2.7-3.3-8.5-0.4-11.9c2.8-3.4,7.3-5,11.7-5.8c20.8-4,43.4,5.2,55.6,22.4c-4-4.2-1.8-11.8,3-15s11.2-3.1,16.9-2.1   c24.6,4.4,45.4,17.8,50.1,42.3L291.2,280.2z"/>
</g>
</svg>